<svg width="21" height="18" viewBox="0 0 21 18" fill="#5294FF" xmlns="http://www.w3.org/2000/svg"><g><path fill-rule="evenodd" clip-rule="evenodd" d="M6.89522 4.06468H15.1048C15.5716 4.06468 15.8412 4.61287 15.5668 5.00365L11.6598 10.5643C11.3851 10.9551 11.6549 11.5033 12.1217 11.5033H15.5649C15.7476 11.5033 15.9193 11.4127 16.0268 11.2596L19.8908 5.76033C20.0364 5.5529 20.0364 5.27219 19.8908 5.06476L16.5032 0.243669C16.3957 0.0905401 16.224 0 16.0413 0H5.95874C5.77592 0 5.60434 0.0905401 5.49684 0.243669L2.10921 5.06476C1.9636 5.27219 1.9636 5.55304 2.10921 5.76033L10.5379 17.7566C10.7659 18.0811 11.2339 18.0811 11.462 17.7566L13.1834 15.3065C13.3291 15.0991 13.3291 14.8182 13.1834 14.6108L6.43331 5.00365C6.15875 4.61287 6.4284 4.06468 6.89522 4.06468Z" fill="#5294FF"></path></g></svg>